<?xml version="1.0" encoding="utf-8"?>
<!-- Generator: Adobe Illustrator 26.0.1, SVG Export Plug-In . SVG Version: 6.00 Build 0)  -->
<svg version="1.1" id="Calque_1" xmlns="http://www.w3.org/2000/svg" xmlns:xlink="http://www.w3.org/1999/xlink" x="0px" y="0px"
	 viewBox="0 0 206.7 179" style="enable-background:new 0 0 206.7 179;" xml:space="preserve">
<style type="text/css">
	.st0{fill:#FFFFFF;}
</style>
<g>
	<path class="st0" d="M103.3,38.4c-12.4,0-22.4,10-22.4,22.4s10,22.4,22.4,22.4s22.4-10,22.4-22.4S115.7,38.4,103.3,38.4z M103.3,71
		c-5.6,0-10.1-4.5-10.1-10.1s4.5-10.1,10.1-10.1s10.1,4.5,10.1,10.1S108.9,71,103.3,71z"/>
	<path class="st0" d="M0,0l103.3,179L206.7,0H0z M103.3,92.8c-20.1,0-37.2-16-45.9-32c8.7-16,25.8-32,45.9-32s37.2,16,45.9,32
		C140.5,76.8,123.5,92.8,103.3,92.8z"/>
</g>
</svg>
